<svg width="100" height="84" viewBox="0 0 100 84" fill="none" xmlns="http://www.w3.org/2000/svg">
<path d="M56.5318 62.8172C56.4601 62.8587 56.3761 62.8766 56.2955 62.8833C56.2798 62.8833 56.2675 62.8945 56.2541 62.8945H56.2518C56.2507 62.8945 56.2485 62.8923 56.2473 62.8923C56.1577 62.8923 56.0726 62.8688 55.9931 62.8262C55.9875 62.8217 55.9797 62.8217 55.9729 62.8172L50.1243 59.4393V83.2415L93.5869 58.1468V41.4231L56.5318 62.8172Z" fill="#FF0C0C"/>
<path d="M27.0289 25.6087L0 29.2095L5.26286 32.2481L49.8454 57.9856L54.0577 60.4171L27.0289 25.6087Z" fill="#FF0C0C"/>
<path d="M5.54286 58.1468L49.0054 83.2415V58.792L5.54286 33.7018V58.1468Z" fill="#FF0C0C"/>
<path d="M61.2548 6.0379L62.199 7.35166C62.2158 7.37406 62.2214 7.40206 62.2326 7.42558C62.2561 7.46926 62.2819 7.51293 62.292 7.55885L62.722 9.44269C62.7232 9.44717 62.7209 9.45165 62.7232 9.45613C62.7265 9.47629 62.7254 9.49757 62.7265 9.51885C62.7276 9.53565 62.7366 9.55021 62.7366 9.56813V16.6207C62.7366 16.9287 62.4857 17.1807 62.1766 17.1807C61.8675 17.1807 61.6166 16.9287 61.6166 16.6207V12.5932L60.9412 13.534C60.9289 13.552 60.9099 13.5576 60.8964 13.5732C60.8718 13.599 60.8539 13.6326 60.8236 13.6539L58.82 15.1614C58.8088 15.1703 58.7953 15.167 58.7841 15.1748C58.7595 15.1916 58.7393 15.214 58.7102 15.2275L56.0984 16.3844C56.0827 16.3911 56.067 16.3889 56.0502 16.3945C56.0334 16.4001 56.02 16.4135 56.0021 16.418L52.9613 17.1438C52.9389 17.1483 52.9176 17.1483 52.8941 17.1505C52.8862 17.1527 52.8806 17.1572 52.8728 17.1572L49.6091 17.407C49.5946 17.4081 49.5811 17.4092 49.5677 17.4092H49.5654C49.552 17.4092 49.5386 17.4081 49.524 17.407L46.2603 17.1572C46.2525 17.1572 46.2469 17.1527 46.239 17.1505C46.2155 17.1483 46.1942 17.1483 46.1718 17.1438L43.1299 16.418C43.1109 16.4135 43.0986 16.4001 43.0807 16.3945C43.065 16.3889 43.0493 16.3911 43.0325 16.3844L40.4207 15.2275C40.3927 15.214 40.3725 15.1916 40.3467 15.1748C40.3355 15.167 40.3232 15.1703 40.312 15.1614L38.3084 13.6539C38.2781 13.6315 38.2602 13.599 38.2367 13.5732C38.2221 13.5576 38.2031 13.5508 38.1908 13.534L37.5165 12.5944V16.6207C37.5165 16.9287 37.2656 17.1807 36.9565 17.1807C36.6474 17.1807 36.3965 16.9287 36.3965 16.6207V9.56813C36.3965 9.55021 36.4055 9.53565 36.4066 9.51885C36.4077 9.49757 36.4055 9.47741 36.41 9.45613C36.4111 9.45165 36.41 9.44717 36.41 9.44269L36.8389 7.55662C36.8568 7.48158 36.8893 7.41214 36.9308 7.35278L37.1066 7.10862L1.02256 27.9428L27.0893 24.4708L40.3669 16.8033C40.6335 16.6476 40.9762 16.7395 41.133 17.0094C41.2875 17.2759 41.1957 17.6198 40.9269 17.7743L28.1097 25.1753L56.3963 61.6054L93.868 39.9693L100 36.429L71.7134 0L61.2548 6.0379Z" fill="#FF0C0C"/>
<path d="M56.0469 2.73839C56.0637 2.74287 56.0805 2.74175 56.0961 2.74959L58.708 3.90655C58.7292 3.91551 58.7416 3.93231 58.7606 3.94351C58.7808 3.95471 58.8009 3.95695 58.8189 3.96927L60.4585 5.2035L69.115 0.2072L54.0376 2.24671L55.9998 2.71599C56.0177 2.72047 56.0312 2.73167 56.0469 2.73839Z" fill="#FF0C0C"/>
<path d="M49.5654 2.84927L46.3903 3.08895L45.1 3.39919H45.0978L43.4391 3.79231L40.9347 4.90446L39.0498 6.3235L37.9052 7.91613L37.53 9.56813L37.9052 11.2145L39.0498 12.8116L40.9336 14.2296L43.4391 15.3384L46.388 16.0428L49.5654 16.2859L52.7429 16.0428L55.6907 15.3384L58.1961 14.2296L60.08 12.8116L61.2246 11.2145L61.6009 9.56813L61.2246 7.91613L60.0777 6.31902L58.1961 4.90446L55.6907 3.79343L52.7417 3.08895L49.5654 2.84927Z" fill="#FF0C0C"/>
</svg>
